<svg xmlns="http://www.w3.org/2000/svg" width="800" height="800" viewBox="0 0 50 50"><path d="M7 6c-3.855 0-7 3.145-7 7v23c0 1.645 1.355 3 3 3h4.094c.476 2.836 2.941 5 5.906 5s5.43-2.164 5.906-5h9.25c.739 0 1.399-.313 1.907-.781.519.457 1.183.777 1.937.781h2.094c.476 2.836 2.941 5 5.906 5s5.43-2.164 5.906-5H47c1.66 0 3-1.34 3-3v-8.625c0-2.29-1.594-4.313-1.594-4.313h-.031l-4.125-5.5v-.03l-.031-.032a12.019 12.019 0 0 0-.688-.781c1.535-.75 2.258-2.813 1.219-4.375l-2.125-3.219A7.046 7.046 0 0 0 36.781 6Zm0 2h29.781a4.99 4.99 0 0 1 4.157 2.219l2.156 3.219c.472.71.011 1.562-.844 1.562H32c-1.66 0-3 1.34-3 3v11H2V13c0-2.773 2.227-5 5-5Zm0 3c-1.094 0-2 .906-2 2v10c0 1.094.906 2 2 2h16c1.094 0 2-.906 2-2V13c0-1.094-.906-2-2-2Zm22.813 0c-.551.05-.958.543-.907 1.094.051.55.543.957 1.094.906h8c.36.004.695-.184.879-.496a1.01 1.01 0 0 0 0-1.008c-.184-.312-.52-.5-.879-.496h-8.187ZM7 13h16v10H7Zm25 4h4v9c0 1.094.906 2 2 2h10v8c0 .371-.629 1-1 1h-1.094c-.476-2.836-2.941-5-5.906-5s-5.43 2.164-5.906 5H32c-.184 0-.473-.129-.688-.344C31.099 36.441 31 36.18 31 36V18c0-.371.629-1 1-1Zm6 0h2c.785 0 1.895.844 2.656 1.75.008.012.024.02.032.031l4.093 5.469s.418.828.782 1.75H38ZM2 31h27v5.156a.84.84 0 0 1-.844.844h-9.25c-.476-2.836-2.941-5-5.906-5s-5.43 2.164-5.906 5H3c-.55 0-1-.45-1-1Zm11 3c2.223 0 4 1.777 4 4s-1.777 4-4 4-4-1.777-4-4 1.777-4 4-4Zm27 0c2.223 0 4 1.777 4 4s-1.777 4-4 4-4-1.777-4-4 1.777-4 4-4Z"/></svg>